#!OML:ASF H:\MichaelJackson\Top Level 1\Subject 1\Session 1\male.ASF
:FULLY-SPECIFIED
:DEGREES
408
root 4.57939 16.2155 -11.1822 1.33875 -38.9022 -1.15061
lowerback 5.7728 4.76633 -0.927184
upperback 1.73084 6.22601 -2.31025
thorax -1.27833 3.10274 -2.27115
lowerneck -6.22072 2.47158 7.40129
upperneck 3.71724 2.65565 0.144547
head 2.37489 1.43576 -1.12873
rclavicle -7.94145e-014 1.03368e-014
rhumerus -45.4498 10.1875 -91.5749
rradius 64.5087
rwrist 7.72207
rhand -19.1364 -17.4691
rfingers 7.12502
rthumb 7.17347 -767.328
lclavicle -7.94145e-014 1.03368e-014
lhumerus -45.6615 -17.7051 94.2025
lradius 51.4418
lwrist 19.541
lhand -19.4515 2.6434
lfingers 7.12502
lthumb 6.86932 32.512
rfemur -42.4355 -26.0976 26.3333
rtibia 87.6232
rfoot 4.62596 -3.41616
rtoes 38.6668
lfemur -28.5956 7.21684 -10.2971
ltibia 45.674
lfoot -12.0534 14.4371
ltoes 1.74946
409
root 4.52786 16.1866 -11.0747 0.98123 -39.4125 -0.916238
lowerback 5.98378 4.79561 -0.967328
upperback 1.78493 6.25562 -2.36256
thorax -1.33699 3.11669 -2.32136
lowerneck -6.17674 2.69878 7.56694
upperneck 3.67865 2.96778 -0.198613
head 2.37852 1.58297 -1.25687
rclavicle -3.83654e-014 3.97569e-015
rhumerus -45.4494 10.0386 -91.329
rradius 65.0109
rwrist 7.73149
rhand -19.6001 -17.1966
rfingers 7.12502
rthumb 6.72587 -767.07
lclavicle -3.83654e-014 3.97569e-015
lhumerus -45.6312 -17.568 94.2249
lradius 51.211
lwrist 19.1887
lhand -20.0795 2.1807
lfingers 7.12502
lthumb 6.26306 32.0681
rfemur -44.1633 -26.0582 26.2841
rtibia 87.7265
rfoot 4.16905 -1.98801
rtoes 36.926
lfemur -28.184 7.88324 -10.417
ltibia 46.4949
lfoot -12.9905 14.1439
ltoes 2.22126
410
root 4.47347 16.1591 -10.9701 0.709074 -39.8082 -0.762087
lowerback 6.15839 4.79754 -0.949758
upperback 1.83179 6.25375 -2.39562
thorax -1.37987 3.11518 -2.37844
lowerneck -6.14651 2.92835 7.74008
upperneck 3.67463 3.28025 -0.536028
head 2.39836 1.73161 -1.38464
rclavicle 3.22031e-014 1.51076e-014
rhumerus -45.4154 9.86277 -91.0786
rradius 65.4414
rwrist 7.8161
rhand -20.1373 -16.9277
rfingers 7.12502
rthumb 6.20725 -766.817
lclavicle 3.22031e-014 1.51076e-014
lhumerus -45.5569 -17.4453 94.2354
lradius 50.9216
lwrist 18.751
lhand -20.6364 1.73679
lfingers 7.12502
lthumb 5.7254 31.6394
rfemur -45.7174 -25.7944 26.1669
rtibia 87.3447
rfoot 3.7378 -0.713564
rtoes 35.1642
lfemur -27.8181 8.51112 -10.4691
ltibia 47.2795
lfoot -13.9037 13.8072
ltoes 2.59443
411
root 4.41606 16.1333 -10.8688 0.532276 -40.0589 -0.687973
lowerback 6.29278 4.76377 -0.879405
upperback 1.86828 6.20945 -2.41136
thorax -1.40892 3.09276 -2.4405
lowerneck -6.13857 3.15743 7.91665
upperneck 3.71289 3.58844 -0.857897
head 2.43799 1.87968 -1.50816
rclavicle -1.99779e-014 1.74931e-014
rhumerus -45.3529 9.65244 -90.8291
rradius 65.8035
rwrist 7.99748
rhand -20.7459 -16.6968
rfingers 7.12502
rthumb 5.61965 -766.602
lclavicle -1.99779e-014 1.74931e-014
lhumerus -45.4433 -17.3447 94.236
lradius 50.5812
lwrist 18.2497
lhand -21.0987 1.32331
lfingers 7.12502
lthumb 5.27901 31.2376
rfemur -47.0705 -25.3387 25.9429
rtibia 86.4927
rfoot 3.33111 0.256629
rtoes 33.5552
lfemur -27.5188 9.07735 -10.4588
ltibia 48.0255
lfoot -14.768 13.4286
ltoes 2.82089
412
root 4.35552 16.1098 -10.7715 0.457221 -40.1396 -0.698647
lowerback 6.38948 4.68907 -0.757082
upperback 1.89289 6.11578 -2.40935
thorax -1.42775 3.04596 -2.50644
lowerneck -6.15643 3.38131 8.0919
upperneck 3.79238 3.88601 -1.15735
head 2.49701 2.02397 -1.6244
rclavicle 2.38542e-015 6.36111e-015
rhumerus -45.2732 9.40252 -90.5847
rradius 66.109
rwrist 8.28637
rhand -21.4247 -16.5373
rfingers 7.12502
rthumb 4.96424 -766.459
lclavicle 2.38542e-015 6.36111e-015
lhumerus -45.2983 -17.2774 94.2321
lradius 50.2041
lwrist 17.7095
lhand -21.4459 0.959795
lfingers 7.12502
lthumb 4.94378 30.8821
rfemur -48.1885 -24.7128 25.5737
rtibia 85.1886
rfoot 2.94115 0.841185
rtoes 32.2087
lfemur -27.2996 9.5575 -10.3833
ltibia 48.731
lfoot -15.5623 13.0066
ltoes 2.87863
413
root 4.29178 16.089 -10.6787 0.485654 -40.0338 -0.802722
lowerback 6.45553 4.57205 -0.580231
upperback 1.90703 5.97105 -2.38682
thorax -1.43938 2.97391 -2.57534
lowerneck -6.20135 3.59394 8.26219
upperneck 3.90374 4.16521 -1.43225
head 2.5718 2.16028 -1.73222
rclavicle 1.18078e-013 -4.45278e-014
rhumerus -45.1904 9.11074 -90.3473
rradius 66.3751
rwrist 8.67788
rhand -22.1709 -16.4782
rfingers 7.12502
rthumb 4.24374 -766.416
lclavicle 1.18078e-013 -4.45278e-014
lhumerus -45.1296 -17.2583 94.2322
lradius 49.8097
lwrist 17.1573
lhand -21.6755 0.646299
lfingers 7.12502
lthumb 4.72213 30.5737
rfemur -49.0317 -23.9236 25.0232
rtibia 83.452
rfoot 2.57173 1.03365
rtoes 31.1473
lfemur -27.1645 9.92884 -10.232
ltibia 49.3933
lfoot -16.2722 12.5382
ltoes 2.76749
414
root 4.22485 16.0713 -10.5906 0.613516 -39.7359 -1.01078
lowerback 6.50247 4.41607 -0.343322
upperback 1.91256 5.77983 -2.33959
thorax -1.44861 2.87881 -2.64741
lowerneck -6.2659 3.78781 8.4242
upperneck 4.03023 4.41718 -1.68281
head 2.65452 2.28374 -1.83151
rclavicle -1.16687e-013 3.97569e-015
rhumerus -45.1241 8.77662 -90.1173
rradius 66.623
rwrist 9.1507
rhand -22.9798 -16.5412
rfingers 7.12502
rthumb 3.4626 -766.493
lclavicle -1.16687e-013 3.97569e-015
lhumerus -44.949 -17.3046 94.2481
lradius 49.4217
lwrist 16.6193
lhand -21.7931 0.389413
lfingers 7.12502
lthumb 4.60852 30.3193
rfemur -49.5569 -22.9608 24.2594
rtibia 81.3034
rfoot 2.25205 0.891562
rtoes 30.3013
lfemur -27.1063 10.1756 -9.98912
ltibia 50.0085
lfoot -16.8922 12.0217
ltoes 2.50452
415
root 4.15468 16.0566 -10.5073 0.828727 -39.2508 -1.3284
lowerback 6.53944 4.2282 -0.0440524
upperback 1.91433 5.55159 -2.26369
thorax -1.45594 2.76532 -2.72131
lowerneck -6.34036 3.95579 8.57544
upperneck 4.15084 4.63377 -1.91104
head 2.73542 2.38971 -1.92306
rclavicle -3.21037e-014 4.45278e-014
rhumerus -45.0909 8.40243 -89.8932
rradius 66.8732
rwrist 9.66939
rhand -23.839 -16.7372
rfingers 7.12502
rthumb 2.63282 -766.701
lclavicle -3.21037e-014 4.45278e-014
lhumerus -44.7656 -17.4326 94.291
lradius 49.0661
lwrist 16.1195
lhand -21.8097 0.202853
lfingers 7.12502
lthumb 4.5925 30.1331
rfemur -49.7237 -21.7976 23.254
rtibia 78.7668
rfoot 2.04085 0.514898
rtoes 29.5534
lfemur -27.1095 10.2923 -9.64179
ltibia 50.5728
lfoot -17.4255 11.4606
ltoes 2.10693
416
root 4.08114 16.0444 -10.4287 1.11159 -38.5922 -1.75432
lowerback 6.57588 4.0184 0.315422
upperback 1.91673 5.29927 -2.15676
thorax -1.46262 2.63982 -2.79511
lowerneck -6.4129 4.09138 8.71416
upperneck 4.24597 4.80761 -2.11824
head 2.8047 2.47413 -2.00759
rclavicle 2.21645e-014 -1.19271e-014
rhumerus -45.1061 7.99058 -89.6732
rradius 67.1423
rwrist 10.1918
rhand -24.7332 -17.0647
rfingers 7.12502
rthumb 1.76928 -767.037
lclavicle 2.21645e-014 -1.19271e-014
lhumerus -44.5895 -17.6572 94.3714
lradius 48.7662
lwrist 15.671
lhand -21.7481 0.0886429
lfingers 7.12502
lthumb 4.65203 30.0176
rfemur -49.4996 -20.3942 21.9861
rtibia 75.8722
rfoot 2.01475 0.0235498
rtoes 28.7151
lfemur -27.1529 10.2853 -9.18297
ltibia 51.0836
lfoot -17.8844 10.8654
ltoes 1.58543
